<svg width="1599" height="529" viewBox="0 0 1599 529" fill="none" xmlns="http://www.w3.org/2000/svg">
<path d="M1419.65 103.17H1342C1339.59 103 1337.28 102.185 1335.3 100.81C1329.37 96.6501 1329.45 89.21 1329.46 88.54V26.8901C1329.46 19.9123 1326.69 13.2202 1321.75 8.28613C1316.82 3.35205 1310.13 0.580078 1303.15 0.580078H881.59C877.628 0.580078 873.705 1.36028 870.044 2.87646C866.384 4.39265 863.058 6.61496 860.256 9.4165C857.455 12.218 855.233 15.5442 853.716 19.2046C852.2 22.865 851.42 26.788 851.42 30.75V89C851.524 91.9562 850.679 94.8682 849.01 97.3101C844.85 103.24 837.41 103.16 836.74 103.14H772.62C769.357 103.14 766.126 103.783 763.112 105.033C760.098 106.283 757.36 108.115 755.055 110.424C752.75 112.733 750.922 115.474 749.678 118.49C748.433 121.506 747.795 124.737 747.8 128V528.58H850.8V309.58H938.48C941.36 309.511 944.188 310.355 946.56 311.99C952.49 316.15 952.41 323.59 952.39 324.25V378.07C952.39 386.997 955.936 395.559 962.249 401.871C968.561 408.184 977.123 411.73 986.05 411.73H1302.43C1309.86 411.73 1316.98 408.78 1322.23 403.529C1327.48 398.278 1330.43 391.156 1330.43 383.73V322.73C1330.37 319.877 1331.21 317.078 1332.83 314.73C1336.42 309.61 1342.44 308.98 1344.45 308.91H1404.85C1417.92 308.91 1430.45 303.718 1439.7 294.476C1448.94 285.234 1454.13 272.7 1454.13 259.63V137.63C1454.12 128.489 1450.49 119.726 1444.02 113.265C1437.56 106.803 1428.79 103.173 1419.65 103.17ZM1329.23 206.76V295.18C1329.25 297.952 1328.41 300.663 1326.83 302.94C1322.67 308.87 1315.23 308.79 1314.57 308.77H966.93C964.023 308.854 961.165 308.01 958.77 306.36C952.83 302.2 952.92 294.76 952.93 294.1V237.48C952.93 228.871 949.51 220.615 943.422 214.527C937.335 208.44 929.079 205.02 920.47 205.02H850.77V103.54L851.43 103.49V103.54H1316.57C1319.03 103.69 1321.4 104.509 1323.43 105.91C1328.43 109.41 1329.14 115.17 1329.24 117.34V206.76H1329.23Z" fill="white"/>
<path d="M1473.54 406.93V509.93H1549.16C1555.63 509.93 1562.04 508.655 1568.02 506.178C1574 503.701 1579.43 500.07 1584.01 495.493C1588.59 490.916 1592.22 485.482 1594.69 479.502C1597.17 473.522 1598.44 467.113 1598.44 460.64V406.97L1473.54 406.93Z" fill="white"/>
<path d="M117.199 410.91C114.243 411.025 111.329 410.183 108.889 408.51C102.959 404.35 103.04 396.91 103.06 396.24V24.1201H23.7795C17.5009 24.1201 11.4794 26.6135 7.03882 31.0522C2.59824 35.4909 0.102261 41.5114 0.0996094 47.79V357.79C0.102261 371.891 5.7048 385.413 15.6755 395.384C25.6463 405.355 39.1688 410.957 53.2695 410.96H89.5095C92.1964 410.982 94.814 411.815 97.0195 413.35C98.5223 414.459 99.7894 415.856 100.747 417.459C101.705 419.063 102.335 420.841 102.6 422.69V476.37C102.6 486.326 106.555 495.874 113.595 502.915C120.635 509.955 130.183 513.91 140.139 513.91H541.649C549.935 513.91 557.881 510.619 563.74 504.76C569.598 498.902 572.889 490.955 572.889 482.67V411H116.09L117.199 410.91Z" fill="white"/>
</svg>
